<svg xmlns="http://www.w3.org/2000/svg" version="1.1" xmlns:xlink="http://www.w3.org/1999/xlink" width="512" height="512"><svg xmlns="http://www.w3.org/2000/svg" version="1.1" xmlns:xlink="http://www.w3.org/1999/xlink" width="512" height="512"><svg id="Layer_1" data-name="Layer 1" xmlns="http://www.w3.org/2000/svg" viewBox="0 0 512 512">
  <defs>
    <style>
      .cls-1 {
        fill: #ffce00;
      }
    </style>
  </defs>
  <rect class="cls-1" x="58.78" y="58.78" width="394.45" height="394.45" rx="60.96" ry="60.96" transform="translate(-106.04 256) rotate(-45)"></rect>
  <circle cx="247.83" cy="209.91" r="37.1"></circle>
  <path d="M320.81,439.11c-15.4-11.73-28.17-27.13-36.91-44.54-9.02-17.97-13.79-38.2-13.79-58.51,0-31.92,15.11-63.34,29.29-82.15,8.14-11.09,16.34-28.97,16.34-43.99,0-37.44-30.46-67.89-67.89-67.89h-46.9v-37.1h46.9c57.89,0,104.99,47.1,104.99,104.99,0,23.61-10.83,47.61-21.63,63.28-.38.7-.81,1.38-1.29,2.05-.2.28-.48.65-.76,1.02-.42.55-.86,1.07-1.3,1.56-12.58,17.39-20.64,40.02-20.64,58.23,0,29.27,13.15,56.08,36.08,73.54l-22.48,29.52Z"></path>
  <polygon points="200.93 123.46 212.26 174.03 154.03 123.46 212.26 72.89 200.93 123.46"></polygon>
</svg></svg><style>@media (prefers-color-scheme: light) { :root { filter: none; } }
@media (prefers-color-scheme: dark) { :root { filter: none; } }
</style></svg>