<?xml version="1.0" encoding="UTF-8"?>
<svg id="Layer_1" data-name="Layer 1" xmlns="http://www.w3.org/2000/svg" viewBox="0 0 2048 512">
  <defs>
    <style>
      .cls-1 {
        fill: none;
        stroke: #000;
        stroke-miterlimit: 10;
        stroke-width: 50px;
      }
    </style>
  </defs>
  <circle cx="185.46" cy="194.03" r="50"/>
  <ellipse class="cls-1" cx="394.25" cy="357.37" rx="79.5" ry="70" transform="translate(-112.37 520.12) rotate(-60)"/>
  <path class="cls-1" d="M122.25,77.53h63.21c64.34,0,116.5,52.16,116.5,116.5,0,25.82-12.75,54.91-26.96,74.22-2.78,3.95,3.25-3.9,0,0-18.92,25.05-34.52,61.68-34.52,95.78,0,48.73,22.99,91.97,58.48,119"/>
  <polygon points="122.25 77.53 137.52 145.69 59.04 77.53 137.52 9.38 122.25 77.53"/>
  <path class="cls-1" d="M1148.59,304.87c24.48-10.46,61.87-21.81,68.7-10.28,13.76,23.22-76.17,111.52-62.38,134.83,4.08,6.9,18.31,9.89,65.03-10.37"/>
  <circle cx="1226.68" cy="219.44" r="25"/>
  <path class="cls-1" d="M1988.96,420.04s-128.27,117.32-53.68-313.9"/>
  <path class="cls-1" d="M1847.75,251.96s66.23-5.72,137.82,12.4"/>
  <path class="cls-1" d="M561.98,272.34c-36.88,42.33-41.23,98.66-14.85,135.37,15.3,21.29,53.55,31.15,80.12,25.21,39.06-8.74,62.67-64.3,46.96-153.67"/>
  <ellipse class="cls-1" cx="1025.15" cy="358.34" rx="79.5" ry="70" transform="translate(202.24 1066.97) rotate(-60)"/>
  <path class="cls-1" d="M1097.65,354.55s26.8-182.33,8.16-238.27"/>
  <ellipse class="cls-1" cx="1345.28" cy="355.32" rx="79.5" ry="70" transform="translate(849.94 1655.58) rotate(-83.94)"/>
  <ellipse class="cls-1" cx="1545.64" cy="357.73" rx="70" ry="79.5" transform="translate(-16 637.5) rotate(-23.19)"/>
  <path class="cls-1" d="M1281.33,324.68s28.23-98.83,18.38-224.18"/>
  <path class="cls-1" d="M1689.78,280.91c-26.23,55.32-13.36,115.69,22.05,141.41,21.94,15.93,54.59,20.05,78.14,4.66,35.07-22.91,48.67-88.21,15.82-148.14"/>
  <path class="cls-1" d="M740.79,450.86c-10.01-68.72-6.44-87.66,14.5-120.86,25.89-41.03,51.96-48.2,91.51-24.86,44.45,26.22,54.56,63.86,29.01,145.73"/>
</svg>